<?xml version="1.0" standalone="no"?>
<!DOCTYPE svg PUBLIC "-//W3C//DTD SVG 20010904//EN"
 "http://www.w3.org/TR/2001/REC-SVG-20010904/DTD/svg10.dtd">
<svg version="1.0" xmlns="http://www.w3.org/2000/svg"
 width="356.000000pt" height="356.000000pt" viewBox="0 0 356.000000 356.000000"
 preserveAspectRatio="xMidYMid meet">
<metadata>
Created by potrace 1.11, written by Peter Selinger 2001-2013
</metadata>
<g transform="translate(0.000000,356.000000) scale(0.100000,-0.100000)"
fill="#000000" stroke="none">
<path d="M1746 3534 c-26 -14 -80 -44 -119 -67 l-72 -43 -3 -147 c-1 -81 -5
-147 -8 -147 -2 0 -37 19 -77 41 -40 23 -92 53 -117 67 -25 13 -49 28 -55 32
-5 4 -63 -25 -127 -63 l-118 -70 -1 -86 c0 -47 0 -114 0 -148 0 -35 -4 -63 -8
-63 -5 0 -65 33 -136 74 -141 82 -122 80 -220 21 -22 -14 -73 -44 -114 -67
-40 -24 -92 -54 -116 -68 -23 -14 -80 -47 -127 -74 l-85 -50 1 -507 1 -507 25
-21 c14 -11 28 -20 32 -21 18 -1 368 -224 361 -230 -4 -4 -33 -21 -63 -37 -30
-17 -123 -69 -207 -117 l-152 -87 4 -92 c2 -51 4 -110 4 -133 1 -36 5 -43 38
-61 21 -11 128 -73 238 -138 110 -65 214 -125 230 -135 17 -9 84 -49 150 -87
66 -39 230 -134 364 -213 134 -78 257 -150 272 -159 178 -106 226 -131 253
-131 13 0 63 24 110 53 47 28 94 57 104 62 9 6 84 50 165 100 l148 90 -4 148
c-2 81 0 147 5 147 5 0 65 -31 134 -69 l126 -69 111 65 c62 36 117 69 122 74
6 6 11 72 11 150 1 77 4 142 7 145 3 3 63 -27 133 -67 l128 -71 61 33 c33 18
85 47 115 64 l55 31 1 889 c0 490 -1 895 -3 901 -4 10 -61 45 -233 141 -19 11
-130 75 -247 142 -117 66 -234 133 -260 148 -26 14 -122 69 -213 121 -91 52
-185 106 -210 120 -25 14 -98 56 -163 94 -65 37 -120 68 -123 68 -2 0 -22 11
-43 24 l-39 25 -46 -25z"/>
</g>
</svg>
